<svg width="1080" height="1080" viewBox="0 0 1080 1080" fill="none" xmlns="http://www.w3.org/2000/svg">
<path d="M180.146 593.332L192.66 628.92L205.044 593.332H214.495L196.962 639.609H188.293L170.695 593.332H180.146Z" fill="black"/>
<path d="M265.059 639.609V593.332H274.054V639.609H265.059Z" fill="black"/>
<path d="M329.334 639.609V593.397H338.328V615.363L357.752 593.332H367.659L349.93 613.863L368.767 639.609H358.599L344.194 619.664L338.328 625.791V639.609H329.334Z" fill="black"/>
<path d="M461.707 639.609V599.785L443.523 630.94H441.307L423.122 599.785V639.609H419.798V593.332H423.122L442.415 626.443L461.707 593.332H465.032V639.609H461.707Z" fill="black"/>
<path d="M541.217 639.935C538.002 639.935 535.069 639.283 532.418 637.979C529.768 636.632 527.487 634.851 525.575 632.635C523.663 630.419 522.185 627.92 521.143 625.139C520.1 622.315 519.578 619.425 519.578 616.471C519.578 613.385 520.121 610.452 521.208 607.671C522.294 604.847 523.815 602.349 525.77 600.176C527.769 597.96 530.072 596.222 532.679 594.962C535.33 593.658 538.198 593.006 541.283 593.006C544.542 593.006 547.475 593.68 550.082 595.027C552.732 596.374 555.014 598.177 556.925 600.437C558.837 602.696 560.315 605.216 561.358 607.997C562.4 610.778 562.922 613.603 562.922 616.471C562.922 619.599 562.379 622.576 561.292 625.4C560.206 628.181 558.664 630.679 556.665 632.896C554.709 635.068 552.406 636.784 549.756 638.045C547.149 639.305 544.303 639.935 541.217 639.935ZM522.902 616.471C522.902 619.121 523.359 621.663 524.271 624.096C525.184 626.53 526.444 628.702 528.051 630.614C529.703 632.526 531.636 634.047 533.852 635.177C536.112 636.306 538.589 636.871 541.283 636.871C544.02 636.871 546.519 636.285 548.778 635.112C551.038 633.938 552.971 632.374 554.579 630.419C556.187 628.463 557.403 626.291 558.229 623.901C559.098 621.468 559.533 618.991 559.533 616.471C559.533 613.82 559.076 611.278 558.164 608.845C557.295 606.411 556.035 604.239 554.383 602.327C552.732 600.415 550.777 598.894 548.517 597.764C546.301 596.635 543.89 596.07 541.283 596.07C538.502 596.07 535.981 596.656 533.722 597.83C531.462 599.003 529.529 600.567 527.921 602.522C526.357 604.478 525.118 606.672 524.206 609.105C523.337 611.495 522.902 613.95 522.902 616.471Z" fill="black"/>
<path d="M647.954 596.33H631.008V639.609H627.684V596.33H610.737V593.332H647.954V596.33Z" fill="black"/>
<path d="M717.377 639.935C714.162 639.935 711.229 639.283 708.578 637.979C705.928 636.632 703.646 634.851 701.734 632.635C699.823 630.419 698.345 627.92 697.302 625.139C696.259 622.315 695.738 619.425 695.738 616.471C695.738 613.385 696.281 610.452 697.367 607.671C698.454 604.847 699.975 602.349 701.93 600.176C703.929 597.96 706.232 596.222 708.839 594.962C711.489 593.658 714.357 593.006 717.442 593.006C720.701 593.006 723.634 593.68 726.241 595.027C728.892 596.374 731.173 598.177 733.085 600.437C734.997 602.696 736.474 605.216 737.517 607.997C738.56 610.778 739.082 613.603 739.082 616.471C739.082 619.599 738.538 622.576 737.452 625.4C736.366 628.181 734.823 630.679 732.824 632.896C730.869 635.068 728.566 636.784 725.916 638.045C723.308 639.305 720.462 639.935 717.377 639.935ZM699.062 616.471C699.062 619.121 699.518 621.663 700.431 624.096C701.343 626.53 702.603 628.702 704.211 630.614C705.862 632.526 707.796 634.047 710.012 635.177C712.272 636.306 714.748 636.871 717.442 636.871C720.18 636.871 722.678 636.285 724.938 635.112C727.197 633.938 729.131 632.374 730.739 630.419C732.347 628.463 733.563 626.291 734.389 623.901C735.258 621.468 735.692 618.991 735.692 616.471C735.692 613.82 735.236 611.278 734.324 608.845C733.455 606.411 732.194 604.239 730.543 602.327C728.892 600.415 726.937 598.894 724.677 597.764C722.461 596.635 720.049 596.07 717.442 596.07C714.661 596.07 712.141 596.656 709.882 597.83C707.622 599.003 705.689 600.567 704.081 602.522C702.517 604.478 701.278 606.672 700.366 609.105C699.497 611.495 699.062 613.95 699.062 616.471Z" fill="black"/>
<path d="M793.631 639.609V593.332H812.859C814.858 593.332 816.661 593.745 818.269 594.571C819.92 595.396 821.332 596.504 822.505 597.895C823.722 599.242 824.656 600.763 825.308 602.457C826.003 604.152 826.351 605.89 826.351 607.671C826.351 609.974 825.895 612.125 824.982 614.124C824.07 616.123 822.788 617.796 821.137 619.143C819.529 620.49 817.639 621.315 815.466 621.62L827.003 639.609H823.157L811.946 622.141H796.955V639.609H793.631ZM796.955 619.078H813.185C815.184 619.078 816.922 618.535 818.399 617.448C819.876 616.362 821.006 614.95 821.788 613.212C822.614 611.474 823.027 609.627 823.027 607.671C823.027 605.673 822.549 603.826 821.593 602.131C820.68 600.393 819.442 599.003 817.878 597.96C816.357 596.874 814.64 596.33 812.729 596.33H796.955V619.078Z" fill="black"/>
<path d="M908.503 601.023C907.764 600.198 906.938 599.481 906.026 598.872C905.113 598.221 904.136 597.699 903.093 597.308C902.05 596.874 900.92 596.548 899.704 596.33C898.487 596.113 897.183 596.005 895.793 596.005C891.274 596.005 887.971 596.874 885.886 598.612C883.843 600.306 882.822 602.609 882.822 605.521C882.822 607.476 883.279 609.04 884.191 610.213C885.147 611.343 886.624 612.256 888.623 612.951C890.622 613.646 893.207 614.32 896.379 614.971C899.725 615.667 902.615 616.492 905.048 617.448C907.481 618.361 909.35 619.621 910.654 621.229C912.001 622.836 912.674 625.009 912.674 627.746C912.674 629.789 912.283 631.592 911.501 633.156C910.719 634.677 909.589 635.937 908.112 636.937C906.634 637.936 904.874 638.696 902.832 639.218C900.833 639.739 898.595 640 896.119 640C893.729 640 891.448 639.739 889.275 639.218C887.102 638.696 885.06 637.936 883.148 636.937C881.236 635.937 879.455 634.655 877.804 633.091L879.563 630.419C880.519 631.462 881.584 632.396 882.757 633.221C883.974 634.004 885.277 634.677 886.668 635.242C888.102 635.807 889.623 636.263 891.23 636.611C892.838 636.915 894.511 637.067 896.249 637.067C900.29 637.067 903.44 636.328 905.7 634.851C908.003 633.33 909.154 631.092 909.154 628.137C909.154 626.095 908.633 624.444 907.59 623.184C906.547 621.924 904.94 620.903 902.767 620.121C900.594 619.295 897.879 618.535 894.62 617.839C891.361 617.144 888.58 616.362 886.277 615.493C884.017 614.624 882.301 613.451 881.128 611.973C879.998 610.496 879.433 608.497 879.433 605.977C879.433 603.196 880.107 600.849 881.454 598.938C882.844 596.982 884.778 595.505 887.254 594.505C889.731 593.506 892.577 593.006 895.793 593.006C897.792 593.006 899.638 593.202 901.333 593.593C903.071 593.984 904.657 594.592 906.091 595.418C907.568 596.2 908.937 597.199 910.197 598.416L908.503 601.023Z" fill="black"/>
<path d="M168.447 527.147C181.618 518.206 196.777 512.895 211.91 508.344C241.655 499.417 274.082 495.96 304.975 493.198C331.531 490.783 360.435 489.021 387.138 487.5C390.554 487.273 395.465 487.1 398.667 486.686C401.376 485.859 406.394 483.51 409.236 482.362C419.792 477.865 431.241 472.994 441.824 468.778C467.232 458.903 493.507 448.721 520.303 443.436L526.148 442.382C559.469 439.046 593.031 439.553 626.339 441.822C673.365 444.944 720.178 451.817 766.03 462.839C773.676 464.654 781.283 466.656 788.849 468.764C800.179 471.834 811.174 475.797 822.771 477.358C849.749 480.99 880.93 484.106 907.963 478.699C903.959 486.039 867.262 496.417 859.482 499.283C859.228 499.377 858.961 499.257 858.855 499.003C858.761 498.763 858.881 498.496 859.108 498.389L897.954 483.37C884.61 484.037 875.629 483.423 859.922 483.37C844.189 483.09 825.96 482.442 810.587 478.506C780.415 469.925 750.11 462.332 719.177 457.141C665.278 447.667 610.406 444.09 555.719 443.85C545.991 443.957 536.21 444.063 526.588 445.371C519.142 446.599 511.042 448.28 503.796 450.322C475.479 457.982 448.176 468.991 421.22 480.467L410.424 485.111C407.194 486.459 402.777 488.594 399.241 489.675C395.331 490.236 391.141 490.382 387.338 490.703C360.048 492.518 332.612 495.2 305.415 497.949C270.92 501.272 234.863 504.861 201.715 515.297C194.322 517.672 186.956 520.234 179.896 523.477C176.373 525.118 172.797 526.84 169.621 528.895C169.127 529.215 168.474 529.068 168.167 528.575C167.86 528.108 167.993 527.48 168.433 527.147H168.447Z" fill="black"/>
<path d="M437.982 484.391C458.786 474.796 480.07 466.229 501.955 459.397C516.581 454.833 531.58 451.176 546.927 450.202C569.813 448.868 592.845 450.136 615.664 451.764C653.83 454.726 691.982 458.689 729.027 468.831C730.708 469.472 732.229 469.619 734.044 470.78C735.399 471.646 737.153 472.694 734.044 478.211C730.935 483.727 732.743 483.282 722.968 484.711C706.901 487.06 690.794 488.968 674.781 491.45C673.915 491.579 673.852 491.059 674.781 490.922C682.321 489.774 688.232 488.935 697.12 487.373C706.007 485.812 714.334 484.611 723.142 482.703C724.329 482.476 725.704 480.401 726.598 479.454C729.147 475.363 730.282 471.246 728.479 470.693C721.393 468.518 711.185 466.342 703.792 464.688C673.099 459.35 652.415 457.015 615.664 454.012C592.965 452.157 569.826 451.67 547.073 452.751C524.281 454.032 502.302 461.011 480.871 468.498C466.552 473.662 452.394 479.333 438.529 485.605C438.195 485.752 437.795 485.605 437.648 485.272C437.501 484.938 437.648 484.551 437.968 484.391H437.982Z" fill="black"/>
<path d="M644.019 523.33C663.756 513.762 684.013 504.768 705.418 499.63C718.348 496.681 731.907 497.628 745.024 497.441C762.546 497.602 780.027 498.135 797.508 498.762C814.99 499.376 832.458 500.177 849.926 501.084C850.219 501.098 850.46 501.351 850.433 501.658C850.42 501.952 850.166 502.179 849.872 502.165C814.936 501.391 779.96 500.644 745.024 501.058C735.229 501.258 725.434 501.378 715.746 502.312C708.287 503.073 700.854 504.594 693.621 506.596C676.874 511.226 660.5 517.538 644.593 524.544C644.259 524.704 643.859 524.544 643.699 524.211C643.552 523.877 643.699 523.503 644.006 523.343L644.019 523.33Z" fill="black"/>
<path d="M859.932 501.415C867.138 501.255 874.69 501.749 881.896 502.216C882.484 502.282 883.298 502.429 883.791 502.723C888.369 505.658 893.613 509.875 897.923 512.958C901.46 513.612 905.183 513.398 908.826 514.066C909.506 514.146 909.626 515.173 908.973 515.387C905.063 516.748 901.006 517.602 896.842 516.868C895.775 516.561 895.214 516.054 894.747 515.707C890.304 512.264 887.314 507.54 882.937 504.177C882.59 503.964 882.057 503.884 881.67 503.804C874.637 502.99 866.697 502.289 859.931 502.289C859.051 502.383 859.011 501.428 859.932 501.388V501.415Z" fill="#E30613"/>
<path d="M169.648 542.199C172.384 542.159 175.293 542.026 177.895 541.225C177.989 541.199 177.949 541.159 177.975 541.145C177.975 541.145 178.002 541.118 178.056 541.038C179.91 538.41 181.071 534.993 182.046 531.884C182.392 530.67 183.66 529.976 184.875 530.323C186.383 530.723 187.023 532.645 186.076 533.872L183.1 537.956C181.752 539.517 180.498 542.039 178.469 542.933C175.52 543.427 172.638 543.214 169.688 543.52C168.781 543.587 168.728 542.186 169.648 542.186V542.199Z" fill="black"/>
<path d="M186.516 539.236C191.467 539.21 196.804 539.37 201.568 538.035C202.369 537.768 203.103 536.834 203.837 535.887C205.265 533.858 206.786 531.496 207.614 529.228C207.614 529.241 207.64 529.134 207.614 529.255C207.614 529.375 207.627 529.495 207.68 529.602C207.614 529.174 207.64 527.787 207.6 527.306C207.6 526.999 207.8 526.732 208.081 526.652C209.522 526.265 210.723 527.159 211.177 528.427C211.35 529.001 211.297 529.655 211.163 530.202C210.656 531.91 209.682 533.431 208.721 534.753C206.946 536.941 205.078 539.45 202.196 540.264C199.433 540.758 196.938 540.691 194.216 540.704C191.613 540.691 189.038 540.624 186.449 540.544C185.595 540.517 185.608 539.196 186.489 539.21L186.516 539.236Z" fill="black"/>
</svg>
