<svg width="34" height="24" viewBox="0 0 34 24" fill="none" xmlns="http://www.w3.org/2000/svg">
<path d="M14.9048 4.53571H19.5714C20.676 4.53571 21.5714 5.43115 21.5714 6.53571V8.07143H24.1429C25.2474 8.07143 26.1429 8.96686 26.1429 10.0714V12H29.1905V9.64286H31C32.1046 9.64286 33 10.5383 33 11.6429V19.0357C33 20.1403 32.1046 21.0357 31 21.0357H29.1905V18.2857H26.1429V21C26.1429 22.1046 25.2474 23 24.1429 23H15.4762L10.5238 19.4643H6.42857C5.324 19.4643 4.42857 18.5689 4.42857 17.4643V13.1786M14.9048 4.53571H8.2381V6.89286H6.42857C5.324 6.89286 4.42857 7.78829 4.42857 8.89286V13.1786M14.9048 4.53571V1M20.8095 1H9M4.42857 13.1786H1M1 6.5V19.0714" stroke="white" stroke-width="2" stroke-linecap="round" stroke-linejoin="round"/>
</svg>
