<svg version="1.1" class="svg-icon" width="72" height="65" viewBox="0 0 46 65" fill="none" xmlns="http://www.w3.org/2000/svg">

<style>
.svg-icon {
   stroke:rgba(255, 255, 255, 1);
   stroke-width:2;
   stroke-linecap: round;
   stroke-linejoin: round;
   fill:none;
   margin: 0 auto;
   display:block;
}

.page-left {
    animation: page-left 6s ease-in-out infinite;
}
@keyframes page-left {
 30%,40% {
    transform: translate(-12px, 0px);
 }
 55% {
    transform: translate(0px, 0px);
 }
}

.page-right {
    animation: page-right 6s ease-in-out infinite;
}
@keyframes page-right {
 30%,40% {
    transform: translate(12px, 0px);
 }
 55% {
    transform: translate(0px, 0px);
 }
}

.stamp {
    transform-origin: 34px 47px;
    animation: stamp 6s ease-in-out infinite;
}
@keyframes stamp {
 40% {
    transform: rotate(0deg);
 }
 50% {
    transform: rotate(15deg);
 }
 60% {
    transform: rotate(-45deg);
 }
 70% {
    transform: rotate(30deg);
 }
 80% {
    transform: rotate(-15deg);
 }
 90% {
    transform: rotate(0deg);
 }
 
}

</style>
<g class="page-right">
<rect x="1" y="1" width="44" height="57" rx="3" fill="#0D111A"/>
<path d="M8 16H38"/>
<path d="M8 24H38"/>
<path d="M8 32H38"/>

<g class="stamp">
<path d="M28 64V47H40V64L34 58L28 64Z" fill="#0D111A"/>
<circle cx="34" cy="47" r="6" fill="#0D111A"/>
</g>
</g>

<g class="page-middle">
<rect x="1" y="1" width="44" height="57" rx="3" fill="#0D111A"/>
<path d="M8 16H38"/>
<path d="M8 24H38"/>
<path d="M8 32H38"/>

<g class="stamp">
<path d="M28 64V47H40V64L34 58L28 64Z" fill="#0D111A"/>
<circle cx="34" cy="47" r="6" fill="#0D111A"/>
</g>
</g>

<g class="page-left">
<rect x="1" y="1" width="44" height="57" rx="3" fill="#0D111A"/>
<path d="M8 16H38"/>
<path d="M8 24H38"/>
<path d="M8 32H38"/>

<g class="stamp">
<path d="M28 64V47H40V64L34 58L28 64Z" fill="#0D111A"/>
<circle cx="34" cy="47" r="6" fill="#0D111A"/>
</g>
</g>
</svg>
