<svg width="24" height="34" viewBox="0 0 24 34" fill="none" xmlns="http://www.w3.org/2000/svg">
<path d="M1 31V27C1 25.8954 1.89543 25 3 25C4.10457 25 5 25.8954 5 27V31C5 32.1046 4.10457 33 3 33C1.89543 33 1 32.1046 1 31Z" stroke="white" stroke-width="2" stroke-linecap="round" stroke-linejoin="round"/>
<path d="M1 7V3C1 1.89543 1.89543 1 3 1C4.10457 1 5 1.89543 5 3V7C5 8.10457 4.10457 9 3 9C1.89543 9 1 8.10457 1 7Z" stroke="white" stroke-width="2" stroke-linecap="round" stroke-linejoin="round"/>
<path d="M19 31V27C19 25.8954 19.8954 25 21 25C22.1046 25 23 25.8954 23 27V31C23 32.1046 22.1046 33 21 33C19.8954 33 19 32.1046 19 31Z" stroke="white" stroke-width="2" stroke-linecap="round" stroke-linejoin="round"/>
<path d="M19 7V3C19 1.89543 19.8954 1 21 1C22.1046 1 23 1.89543 23 3V7C23 8.10457 22.1046 9 21 9C19.8954 9 19 8.10457 19 7Z" stroke="white" stroke-width="2" stroke-linecap="round" stroke-linejoin="round"/>
<path d="M8 6V5C8 3.89543 8.89543 3 10 3H14C15.1046 3 16 3.89543 16 5V6C16 6.55228 15.5523 7 15 7C14.4477 7 14 7.44772 14 8V9C14 10.1046 13.1046 11 12 11C10.8954 11 10 10.1046 10 9V8C10 7.44772 9.55228 7 9 7C8.44772 7 8 6.55228 8 6Z" stroke="white" stroke-width="2" stroke-linecap="round" stroke-linejoin="round"/>
<circle cx="12" cy="29" r="2" stroke="white" stroke-width="2"/>
<path d="M5 5H8" stroke="white" stroke-width="2" stroke-linecap="round" stroke-linejoin="round"/>
<path d="M5 29H9" stroke="white" stroke-width="2" stroke-linecap="round" stroke-linejoin="round"/>
<path d="M12 11L12 26" stroke="white" stroke-width="2" stroke-linecap="round" stroke-linejoin="round"/>
<path d="M16 5H19" stroke="white" stroke-width="2" stroke-linecap="round" stroke-linejoin="round"/>
<path d="M15 29L19 29" stroke="white" stroke-width="2" stroke-linecap="round" stroke-linejoin="round"/>
</svg>
