<svg width="24" height="32" viewBox="0 0 24 32" fill="none" xmlns="http://www.w3.org/2000/svg">
<path d="M23 12C23 13.4067 22.346 15.3066 21.2359 17.4633C20.1424 19.5877 18.6735 21.836 17.1881 23.9014C15.7054 25.9633 14.2204 27.8232 13.1051 29.1688C12.6736 29.6894 12.298 30.1323 12 30.4792C11.702 30.1323 11.3264 29.6894 10.8949 29.1688C9.77956 27.8232 8.29463 25.9633 6.81186 23.9014C5.32648 21.836 3.8576 19.5877 2.76413 17.4633C1.65402 15.3066 1 13.4067 1 12C1 5.92487 5.92487 1 12 1C18.0751 1 23 5.92487 23 12Z" stroke="white" stroke-width="2"/>
<circle cx="12" cy="12" r="3" stroke="white" stroke-width="2"/>
</svg>
