<svg width="64" height="64" viewBox="0 0 64 64" fill="none" xmlns="http://www.w3.org/2000/svg">
<path d="M32.0029 0C23.3123 0 22.2214 0.0380796 18.8083 0.193278C15.4016 0.349437 13.0762 0.888631 11.0416 1.67998C8.93664 2.49726 7.15136 3.59068 5.3728 5.36987C3.59264 7.14873 2.4992 8.93399 1.67936 11.038C0.88576 13.0731 0.34592 15.3995 0.19264 18.8046C0.0399998 22.218 0 23.3092 0 32C0 40.6908 0.0384 41.7781 0.19328 45.1912C0.35008 48.5979 0.88928 50.9233 1.68 52.9579C2.49792 55.0628 3.59136 56.8481 5.37056 58.6266C7.1488 60.4068 8.93408 61.5027 11.0374 62.32C13.0736 63.1114 15.3994 63.6506 18.8054 63.8067C22.2189 63.9619 23.3088 64 31.999 64C40.6906 64 41.7779 63.9619 45.191 63.8067C48.5978 63.6506 50.9258 63.1114 52.9619 62.32C55.0659 61.5027 56.8486 60.4068 58.6266 58.6266C60.4067 56.8481 61.4998 55.0628 62.32 52.9588C63.1066 50.9233 63.6467 48.5973 63.8067 45.1919C63.96 41.7788 64 40.6908 64 32C64 23.3092 63.96 22.2187 63.8067 18.8053C63.6467 15.3986 63.1066 13.0735 62.32 11.0389C61.4998 8.93399 60.4067 7.14873 58.6266 5.36987C56.8467 3.59004 55.0666 2.49661 52.96 1.6803C50.92 0.888631 48.5933 0.349117 45.1866 0.193278C41.7731 0.0380796 40.6864 0 31.993 0H32.0029ZM29.1322 5.76666C29.9843 5.76538 30.935 5.76666 32.0029 5.76666C40.5472 5.76666 41.5597 5.79738 44.9338 5.95066C48.0538 6.09338 49.7472 6.61465 50.8752 7.05273C52.3686 7.63256 53.4333 8.326 54.5526 9.44631C55.6726 10.5663 56.3658 11.6328 56.9472 13.1263C57.3853 14.2527 57.9072 15.9461 58.0493 19.066C58.2026 22.4395 58.2358 23.4526 58.2358 31.9926C58.2358 40.5327 58.2026 41.5461 58.0493 44.9192C57.9066 48.0392 57.3853 49.7326 56.9472 50.8593C56.3674 52.3528 55.6726 53.4161 54.5526 54.5355C53.4326 55.6554 52.3693 56.3486 50.8752 56.9287C49.7485 57.3687 48.0538 57.8887 44.9338 58.0314C41.5603 58.1847 40.5472 58.218 32.0029 58.218C23.4582 58.218 22.4454 58.1847 19.0723 58.0314C15.9523 57.8874 14.2589 57.3661 13.1299 56.9281C11.6368 56.3479 10.5699 55.6548 9.44992 54.5348C8.32992 53.4148 7.6368 52.3508 7.05536 50.8568C6.61728 49.7301 6.09536 48.0366 5.95328 44.9167C5.8 41.5433 5.76928 40.5302 5.76928 31.9846C5.76928 23.4394 5.8 22.4315 5.95328 19.0581C6.096 15.9381 6.61728 14.2447 7.05536 13.1167C7.63552 11.6232 8.32992 10.5567 9.45024 9.43671C10.5702 8.31672 11.6368 7.62328 13.1302 7.04217C14.2582 6.60217 15.9523 6.08218 19.0723 5.93882C22.0243 5.80538 23.1683 5.76538 29.1322 5.75866V5.76666ZM49.0845 11.0799C46.9645 11.0799 45.2445 12.7983 45.2445 14.9186C45.2445 17.0386 46.9645 18.7585 49.0845 18.7585C51.2045 18.7585 52.9245 17.0386 52.9245 14.9186C52.9245 12.7986 51.2045 11.0786 49.0845 11.0786V11.0799ZM32.0029 15.5666C22.9277 15.5666 15.5696 22.9246 15.5696 32C15.5696 41.0754 22.9277 48.4299 32.0029 48.4299C41.0784 48.4299 48.4339 41.0754 48.4339 32C48.4339 22.9249 41.0784 15.5666 32.0029 15.5666ZM32.0029 21.3332C37.8938 21.3332 42.6698 26.1085 42.6698 32C42.6698 37.8908 37.8938 42.6668 32.0029 42.6668C26.1117 42.6668 21.3363 37.8908 21.3363 32C21.3363 26.1085 26.1117 21.3332 32.0029 21.3332Z" fill="white"/>
</svg>
