<?xml version="1.0" encoding="utf-8"?>
<!-- Generator: Adobe Illustrator 26.4.1, SVG Export Plug-In . SVG Version: 6.00 Build 0)  -->
<svg version="1.1" id="Layer_1" xmlns="http://www.w3.org/2000/svg" xmlns:xlink="http://www.w3.org/1999/xlink" x="0px" y="0px"
	 viewBox="0 0 364 93" style="enable-background:new 0 0 364 93;" xml:space="preserve">
<style type="text/css">
	.st0{fill:#FFFFFF;}
	.st1{fill:#E30613;}
</style>
<g>
	<path class="st0" d="M16.3,71L22,87.4L27.7,71h4.3L24,92.3h-4L11.9,71H16.3z"/>
	<path class="st0" d="M55.3,92.3V71h4.1v21.3H55.3z"/>
	<path class="st0" d="M84.9,92.3V71.1H89v10.1L98,71h4.6l-8.2,9.4l8.7,11.8h-4.7l-6.6-9.2L89,86v6.4H84.9z"/>
	<path class="st0" d="M145.8,92.3V74l-8.4,14.3h-1L128.1,74v18.3h-1.5V71h1.5l8.9,15.2l8.9-15.2h1.5v21.3H145.8z"/>
	<path class="st0" d="M182.4,92.5c-1.5,0-2.8-0.3-4-0.9c-1.2-0.6-2.3-1.4-3.1-2.5s-1.6-2.2-2-3.4c-0.5-1.3-0.7-2.6-0.7-4
		c0-1.4,0.2-2.8,0.8-4c0.5-1.3,1.2-2.4,2.1-3.4c0.9-1,2-1.8,3.2-2.4c1.2-0.6,2.5-0.9,4-0.9c1.5,0,2.8,0.3,4,0.9
		c1.2,0.6,2.3,1.4,3.1,2.5c0.9,1,1.6,2.2,2,3.5c0.5,1.3,0.7,2.6,0.7,3.9c0,1.4-0.2,2.8-0.8,4.1c-0.5,1.3-1.2,2.4-2.1,3.4
		c-0.9,1-2,1.8-3.2,2.4C185.1,92.2,183.8,92.5,182.4,92.5z M174,81.7c0,1.2,0.2,2.4,0.6,3.5c0.4,1.1,1,2.1,1.7,3
		c0.8,0.9,1.6,1.6,2.7,2.1c1,0.5,2.2,0.8,3.4,0.8c1.3,0,2.4-0.3,3.4-0.8c1-0.5,1.9-1.3,2.7-2.2c0.7-0.9,1.3-1.9,1.7-3
		c0.4-1.1,0.6-2.3,0.6-3.4c0-1.2-0.2-2.4-0.6-3.5c-0.4-1.1-1-2.1-1.7-3c-0.8-0.9-1.7-1.6-2.7-2.1c-1-0.5-2.1-0.8-3.3-0.8
		c-1.3,0-2.4,0.3-3.5,0.8c-1,0.5-1.9,1.3-2.7,2.2c-0.7,0.9-1.3,1.9-1.7,3C174.2,79.4,174,80.5,174,81.7z"/>
	<path class="st0" d="M231.5,72.4h-7.8v19.9h-1.5V72.4h-7.8V71h17.1V72.4z"/>
	<path class="st0" d="M263.5,92.5c-1.5,0-2.8-0.3-4-0.9c-1.2-0.6-2.3-1.4-3.1-2.5c-0.9-1-1.6-2.2-2-3.4c-0.5-1.3-0.7-2.6-0.7-4
		c0-1.4,0.2-2.8,0.7-4c0.5-1.3,1.2-2.4,2.1-3.4c0.9-1,2-1.8,3.2-2.4c1.2-0.6,2.5-0.9,4-0.9c1.5,0,2.8,0.3,4,0.9
		c1.2,0.6,2.3,1.4,3.1,2.5c0.9,1,1.6,2.2,2,3.5c0.5,1.3,0.7,2.6,0.7,3.9c0,1.4-0.3,2.8-0.8,4.1c-0.5,1.3-1.2,2.4-2.1,3.4
		c-0.9,1-2,1.8-3.2,2.4C266.2,92.2,264.9,92.5,263.5,92.5z M255,81.7c0,1.2,0.2,2.4,0.6,3.5c0.4,1.1,1,2.1,1.7,3
		c0.8,0.9,1.6,1.6,2.7,2.1c1,0.5,2.2,0.8,3.4,0.8c1.3,0,2.4-0.3,3.4-0.8c1-0.5,1.9-1.3,2.7-2.2c0.7-0.9,1.3-1.9,1.7-3
		c0.4-1.1,0.6-2.3,0.6-3.4c0-1.2-0.2-2.4-0.6-3.5c-0.4-1.1-1-2.1-1.7-3c-0.8-0.9-1.7-1.6-2.7-2.1c-1-0.5-2.1-0.8-3.3-0.8
		c-1.3,0-2.4,0.3-3.5,0.8c-1,0.5-1.9,1.3-2.7,2.2c-0.7,0.9-1.3,1.9-1.7,3C255.2,79.4,255,80.5,255,81.7z"/>
	<path class="st0" d="M298.5,92.3V71h8.8c0.9,0,1.7,0.2,2.5,0.6c0.8,0.4,1.4,0.9,1.9,1.5c0.6,0.6,1,1.3,1.3,2.1
		c0.3,0.8,0.5,1.6,0.5,2.4c0,1.1-0.2,2-0.6,3c-0.4,0.9-1,1.7-1.8,2.3c-0.7,0.6-1.6,1-2.6,1.1l5.3,8.3h-1.8l-5.2-8h-6.9v8H298.5z
		 M300.1,82.9h7.5c0.9,0,1.7-0.2,2.4-0.8c0.7-0.5,1.2-1.1,1.6-1.9c0.4-0.8,0.6-1.6,0.6-2.5c0-0.9-0.2-1.8-0.7-2.5
		c-0.4-0.8-1-1.4-1.7-1.9c-0.7-0.5-1.5-0.8-2.4-0.8h-7.3V82.9z"/>
	<path class="st0" d="M351.4,74.6c-0.3-0.4-0.7-0.7-1.1-1c-0.4-0.3-0.9-0.5-1.3-0.7c-0.5-0.2-1-0.3-1.6-0.4
		c-0.6-0.1-1.2-0.1-1.8-0.1c-2.1,0-3.6,0.4-4.6,1.2c-0.9,0.8-1.4,1.8-1.4,3.2c0,0.9,0.2,1.6,0.6,2.2c0.4,0.5,1.1,0.9,2,1.3
		c0.9,0.3,2.1,0.6,3.6,0.9c1.5,0.3,2.9,0.7,4,1.1c1.1,0.4,2,1,2.6,1.7c0.6,0.7,0.9,1.7,0.9,3c0,0.9-0.2,1.8-0.5,2.5
		c-0.4,0.7-0.9,1.3-1.6,1.7c-0.7,0.5-1.5,0.8-2.4,1c-0.9,0.2-1.9,0.4-3.1,0.4c-1.1,0-2.1-0.1-3.1-0.4c-1-0.2-1.9-0.6-2.8-1
		c-0.9-0.5-1.7-1.1-2.5-1.8l0.8-1.2c0.4,0.5,0.9,0.9,1.5,1.3c0.6,0.4,1.2,0.7,1.8,0.9c0.7,0.3,1.4,0.5,2.1,0.6
		c0.7,0.1,1.5,0.2,2.3,0.2c1.9,0,3.3-0.3,4.3-1c1.1-0.7,1.6-1.7,1.6-3.1c0-0.9-0.2-1.7-0.7-2.3c-0.5-0.6-1.2-1-2.2-1.4
		c-1-0.4-2.2-0.7-3.7-1.1c-1.5-0.3-2.8-0.7-3.8-1.1c-1-0.4-1.8-0.9-2.4-1.6c-0.5-0.7-0.8-1.6-0.8-2.8c0-1.3,0.3-2.4,0.9-3.2
		c0.6-0.9,1.5-1.6,2.7-2c1.1-0.5,2.4-0.7,3.9-0.7c0.9,0,1.8,0.1,2.5,0.3c0.8,0.2,1.5,0.5,2.2,0.8c0.7,0.4,1.3,0.8,1.9,1.4
		L351.4,74.6z"/>
	<path class="st0" d="M10.9,40.6c6.1-4.1,13-6.6,20-8.7c13.7-4.1,28.6-5.7,42.8-7c12.2-1.1,25.5-1.9,37.8-2.6
		c1.6-0.1,3.8-0.2,5.3-0.4c1.2-0.4,3.6-1.5,4.9-2c4.9-2.1,10.1-4.3,15-6.3c11.7-4.5,23.8-9.2,36.1-11.7l2.7-0.5
		c15.3-1.5,30.8-1.3,46.1-0.3c21.6,1.4,43.2,4.6,64.3,9.7c3.5,0.8,7,1.8,10.5,2.7c5.2,1.4,10.3,3.2,15.6,4
		c12.4,1.7,26.8,3.1,39.2,0.6c-1.8,3.4-18.7,8.2-22.3,9.5c-0.1,0-0.2,0-0.3-0.1c0-0.1,0-0.2,0.1-0.3l17.9-6.9
		c-6.1,0.3-10.3,0-17.5,0c-7.2-0.1-15.6-0.4-22.7-2.2c-13.9-3.9-27.8-7.4-42.1-9.8c-24.8-4.4-50-6-75.2-6.1c-4.5,0-9,0.1-13.4,0.7
		c-3.4,0.6-7.2,1.3-10.5,2.3c-13,3.5-25.6,8.6-38,13.9l-5,2.1c-1.5,0.6-3.5,1.6-5.1,2.1c-1.8,0.3-3.7,0.3-5.5,0.5
		c-12.6,0.8-25.2,2.1-37.7,3.3c-15.9,1.5-32.5,3.2-47.7,8c-3.4,1.1-6.8,2.3-10,3.8c-1.6,0.8-3.3,1.5-4.7,2.5
		c-0.2,0.1-0.5,0.1-0.7-0.1C10.6,41,10.7,40.7,10.9,40.6L10.9,40.6z"/>
	<path class="st0" d="M134.9,20.9c9.6-4.4,19.4-8.4,29.4-11.5c6.7-2.1,13.6-3.8,20.7-4.2c10.5-0.6,21.1,0,31.6,0.7
		c17.6,1.4,35.1,3.2,52.2,7.9c0.8,0.3,1.5,0.4,2.3,0.9c0.6,0.4,1.4,0.9,0,3.4c-1.4,2.5-0.6,2.3-5.1,3c-7.4,1.1-14.8,2-22.2,3.1
		c-0.4,0.1-0.4-0.2,0-0.2c3.5-0.5,6.2-0.9,10.3-1.6c4.1-0.7,7.9-1.3,12-2.1c0.5-0.1,1.2-1.1,1.6-1.5c1.2-1.9,1.7-3.8,0.9-4
		c-3.3-1-8-2-11.4-2.8c-14.1-2.5-23.6-3.5-40.6-4.9c-10.4-0.9-21.1-1.1-31.6-0.6c-10.5,0.6-20.6,3.8-30.5,7.2
		c-6.6,2.4-13.1,5-19.5,7.9c-0.2,0.1-0.3,0-0.4-0.2C134.7,21.2,134.7,21,134.9,20.9L134.9,20.9z"/>
	<path class="st0" d="M229.7,38.8c9.1-4.4,18.4-8.5,28.3-10.9c5.9-1.4,12.2-0.9,18.2-1c8.1,0.1,16.1,0.3,24.1,0.6
		c8,0.3,16.1,0.7,24.1,1.1c0.1,0,0.2,0.1,0.2,0.3c0,0.1-0.1,0.2-0.3,0.2c-16.1-0.4-32.2-0.7-48.2-0.5c-4.5,0.1-9,0.1-13.5,0.6
		c-3.4,0.4-6.9,1.1-10.2,2c-7.7,2.1-15.2,5-22.6,8.3c-0.2,0.1-0.3,0-0.4-0.2C229.5,39.1,229.6,38.9,229.7,38.8L229.7,38.8z"/>
	<path class="st1" d="M329.1,28.7c3.3-0.1,6.8,0.2,10.1,0.4c0.3,0,0.6,0.1,0.9,0.2c2.1,1.4,4.5,3.3,6.5,4.7c1.6,0.3,3.3,0.2,5,0.5
		c0.3,0,0.4,0.5,0.1,0.6c-1.8,0.6-3.7,1-5.6,0.7c-0.5-0.1-0.7-0.4-1-0.5c-2-1.6-3.4-3.8-5.4-5.3c-0.2-0.1-0.4-0.1-0.6-0.2
		c-3.2-0.4-6.9-0.7-10-0.7C328.7,29.2,328.6,28.8,329.1,28.7L329.1,28.7z"/>
	<path class="st0" d="M11.4,47.5c1.3,0,2.6-0.1,3.8-0.4c0,0,0,0,0,0c0,0,0,0,0,0c0.9-1.2,1.4-2.8,1.8-4.2c0.2-0.6,0.7-0.9,1.3-0.7
		c0.7,0.2,1,1.1,0.6,1.6l-1.4,1.9c-0.6,0.7-1.2,1.9-2.1,2.3c-1.4,0.2-2.7,0.1-4,0.3C11,48.2,11,47.5,11.4,47.5L11.4,47.5z"/>
	<path class="st0" d="M19.2,46.1c2.3,0,4.7,0.1,6.9-0.6c0.4-0.1,0.7-0.6,1-1c0.7-0.9,1.4-2,1.7-3.1c0,0,0,0,0,0c0,0.1,0,0.1,0,0.2
		c0-0.2,0-0.8,0-1.1c0-0.1,0.1-0.3,0.2-0.3c0.7-0.2,1.2,0.2,1.4,0.8c0.1,0.3,0.1,0.6,0,0.8c-0.2,0.8-0.7,1.5-1.1,2.1
		c-0.8,1-1.7,2.2-3,2.5c-1.3,0.2-2.4,0.2-3.7,0.2c-1.2,0-2.4,0-3.6-0.1C18.8,46.7,18.8,46.1,19.2,46.1L19.2,46.1z"/>
</g>
</svg>
