<svg width="364" height="93" viewBox="0 0 364 93" fill="none" xmlns="http://www.w3.org/2000/svg">
<path d="M7.854 88.105C6.86 88.105 5.936 87.895 5.082 87.475C4.228 87.041 3.486 86.46 2.856 85.732C2.226 85.004 1.736 84.192 1.386 83.296C1.05 82.4 0.882 81.476 0.882 80.524C0.882 79.516 1.05 78.564 1.386 77.668C1.736 76.758 2.219 75.953 2.835 75.253C3.451 74.553 4.179 74 5.019 73.594C5.859 73.188 6.776 72.985 7.77 72.985C9.24 72.985 10.437 73.286 11.361 73.888C12.285 74.49 12.985 75.274 13.461 76.24L12.327 76.996C11.851 76.072 11.214 75.393 10.416 74.959C9.618 74.525 8.729 74.308 7.749 74.308C6.923 74.308 6.174 74.483 5.502 74.833C4.844 75.183 4.277 75.652 3.801 76.24C3.325 76.828 2.961 77.493 2.709 78.235C2.471 78.977 2.352 79.747 2.352 80.545C2.352 81.385 2.492 82.183 2.772 82.939C3.052 83.681 3.451 84.346 3.969 84.934C4.487 85.508 5.082 85.963 5.754 86.299C6.44 86.621 7.175 86.782 7.959 86.782C8.869 86.782 9.73 86.558 10.542 86.11C11.354 85.648 12.131 84.941 12.873 83.989V85.543C11.459 87.251 9.786 88.105 7.854 88.105ZM12.642 81.805H9.324V80.671H13.881V88H12.642V81.805ZM47.9182 86.698V88H37.9012V73.09H47.7292V74.392H39.3712V79.768H46.6582V81.007H39.3712V86.698H47.9182ZM71.6981 88V73.09H77.9981C78.6421 73.09 79.2301 73.223 79.7621 73.489C80.2941 73.755 80.7561 74.119 81.1481 74.581C81.5541 75.029 81.8621 75.533 82.0721 76.093C82.2961 76.639 82.4081 77.199 82.4081 77.773C82.4081 78.487 82.2681 79.159 81.9881 79.789C81.7221 80.419 81.3371 80.951 80.8331 81.385C80.3431 81.819 79.7621 82.106 79.0901 82.246L82.7441 88H81.0851L77.5781 82.498H73.1681V88H71.6981ZM73.1681 81.196H78.0401C78.6281 81.196 79.1391 81.035 79.5731 80.713C80.0071 80.391 80.3431 79.971 80.5811 79.453C80.8191 78.921 80.9381 78.361 80.9381 77.773C80.9381 77.171 80.7981 76.618 80.5181 76.114C80.2521 75.596 79.8881 75.183 79.4261 74.875C78.9781 74.553 78.4741 74.392 77.9141 74.392H73.1681V81.196ZM119.627 88V75.862L114.23 85.291H113.306L107.888 75.862V88H106.418V73.09H107.93L113.747 83.296L119.606 73.09H121.097V88H119.627ZM150.454 73.09H151.693L157.888 88H156.334L154.402 83.338H147.703L145.792 88H144.217L150.454 73.09ZM154.066 82.183L151.063 74.812L148.018 82.183H154.066ZM182.495 75.799V88H181.025V73.09H182.243L192.029 85.522V73.111H193.499V88H192.134L182.495 75.799ZM243.381 80.44C243.381 79.53 243.542 78.641 243.864 77.773C244.2 76.891 244.683 76.093 245.313 75.379C245.943 74.651 246.713 74.077 247.623 73.657C248.533 73.223 249.569 73.006 250.731 73.006C252.103 73.006 253.286 73.307 254.28 73.909C255.288 74.511 256.037 75.295 256.527 76.261L254.301 77.794C254.049 77.234 253.72 76.793 253.314 76.471C252.908 76.135 252.474 75.904 252.012 75.778C251.55 75.638 251.095 75.568 250.647 75.568C249.919 75.568 249.282 75.715 248.736 76.009C248.204 76.303 247.756 76.688 247.392 77.164C247.028 77.64 246.755 78.172 246.573 78.76C246.405 79.348 246.321 79.936 246.321 80.524C246.321 81.182 246.426 81.819 246.636 82.435C246.846 83.037 247.14 83.576 247.518 84.052C247.91 84.514 248.372 84.885 248.904 85.165C249.45 85.431 250.045 85.564 250.689 85.564C251.151 85.564 251.62 85.487 252.096 85.333C252.572 85.179 253.013 84.934 253.419 84.598C253.825 84.262 254.14 83.828 254.364 83.296L256.737 84.661C256.443 85.403 255.96 86.033 255.288 86.551C254.63 87.069 253.888 87.461 253.062 87.727C252.236 87.993 251.417 88.126 250.605 88.126C249.541 88.126 248.568 87.909 247.686 87.475C246.804 87.027 246.041 86.439 245.397 85.711C244.767 84.969 244.27 84.143 243.906 83.233C243.556 82.309 243.381 81.378 243.381 80.44ZM283.529 73.09H286.469L291.95 88H288.968L287.582 84.283H282.374L281.009 88H278.027L283.529 73.09ZM287.057 82.246L284.999 76.093L282.857 82.246H287.057ZM314.585 88V73.09H321.179C321.865 73.09 322.495 73.23 323.069 73.51C323.657 73.79 324.161 74.168 324.581 74.644C325.015 75.12 325.344 75.652 325.568 76.24C325.806 76.828 325.925 77.43 325.925 78.046C325.925 78.676 325.813 79.285 325.589 79.873C325.379 80.447 325.071 80.951 324.665 81.385C324.259 81.819 323.783 82.155 323.237 82.393L326.639 88H323.447L320.381 83.002H317.483V88H314.585ZM317.483 80.461H321.116C321.48 80.461 321.802 80.356 322.082 80.146C322.362 79.922 322.586 79.628 322.754 79.264C322.922 78.9 323.006 78.494 323.006 78.046C323.006 77.57 322.908 77.157 322.712 76.807C322.516 76.443 322.264 76.156 321.956 75.946C321.662 75.736 321.34 75.631 320.99 75.631H317.483V80.461ZM358.434 76.996C358.336 76.898 358.154 76.765 357.888 76.597C357.636 76.429 357.321 76.268 356.943 76.114C356.579 75.96 356.18 75.827 355.746 75.715C355.312 75.589 354.871 75.526 354.423 75.526C353.639 75.526 353.044 75.673 352.638 75.967C352.246 76.261 352.05 76.674 352.05 77.206C352.05 77.612 352.176 77.934 352.428 78.172C352.68 78.41 353.058 78.613 353.562 78.781C354.066 78.949 354.696 79.131 355.452 79.327C356.432 79.565 357.279 79.859 357.993 80.209C358.721 80.545 359.274 80.993 359.652 81.553C360.044 82.099 360.24 82.827 360.24 83.737C360.24 84.535 360.093 85.221 359.799 85.795C359.505 86.355 359.099 86.81 358.581 87.16C358.063 87.51 357.475 87.769 356.817 87.937C356.159 88.091 355.459 88.168 354.717 88.168C353.975 88.168 353.233 88.091 352.491 87.937C351.749 87.783 351.035 87.566 350.349 87.286C349.663 86.992 349.033 86.642 348.459 86.236L349.74 83.737C349.866 83.863 350.09 84.031 350.412 84.241C350.734 84.437 351.126 84.64 351.588 84.85C352.05 85.046 352.554 85.214 353.1 85.354C353.646 85.494 354.199 85.564 354.759 85.564C355.543 85.564 356.138 85.431 356.544 85.165C356.95 84.899 357.153 84.521 357.153 84.031C357.153 83.583 356.992 83.233 356.67 82.981C356.348 82.729 355.9 82.512 355.326 82.33C354.752 82.134 354.073 81.924 353.289 81.7C352.351 81.434 351.567 81.14 350.937 80.818C350.307 80.482 349.838 80.062 349.53 79.558C349.222 79.054 349.068 78.424 349.068 77.668C349.068 76.646 349.306 75.792 349.782 75.106C350.272 74.406 350.93 73.881 351.756 73.531C352.582 73.167 353.499 72.985 354.507 72.985C355.207 72.985 355.865 73.062 356.481 73.216C357.111 73.37 357.699 73.573 358.245 73.825C358.791 74.077 359.281 74.35 359.715 74.644L358.434 76.996Z" fill="white"/>
<path d="M0.219372 42.7856C6.68586 38.396 14.1285 35.7884 21.5581 33.5543C36.1618 29.1713 52.0823 27.4744 67.2494 26.1182C80.2872 24.9324 94.4781 24.0675 107.588 23.3206C109.265 23.2093 111.676 23.1241 113.249 22.921C114.579 22.5148 117.042 21.3617 118.437 20.7983C123.62 18.5903 129.241 16.199 134.437 14.1287C146.911 9.28044 159.811 4.28153 172.967 1.68708L175.837 1.16949C192.196 -0.46842 208.673 -0.219457 225.026 0.894325C248.114 2.42741 271.098 5.80152 293.609 11.2132C297.363 12.1042 301.098 13.087 304.812 14.1221C310.375 15.629 315.773 17.5748 321.467 18.3414C334.712 20.1247 350.021 21.6542 363.293 18.9998C361.327 22.6032 343.31 27.6985 339.49 29.1058C339.366 29.1516 339.235 29.0927 339.182 28.9682C339.137 28.8502 339.196 28.7192 339.307 28.6668L358.379 21.2929C351.827 21.6205 347.418 21.3191 339.707 21.2929C331.982 21.1553 323.033 20.8376 315.485 18.9048C300.672 14.6921 285.793 10.9642 270.606 8.41563C244.144 3.76395 217.204 2.00811 190.355 1.89018C185.579 1.94259 180.776 1.995 176.053 2.63707C172.397 3.23982 168.42 4.06533 164.863 5.06773C150.96 8.82838 137.555 14.2335 124.321 19.8679L119.021 22.1479C117.435 22.8096 115.266 23.8579 113.53 24.3886C111.611 24.6637 109.553 24.7358 107.686 24.893C94.2881 25.7841 80.8179 27.101 67.4656 28.4506C50.5295 30.082 32.827 31.8443 16.5527 36.9677C12.923 38.1339 9.30652 39.3919 5.84069 40.9839C4.11106 41.7898 2.35521 42.6349 0.795918 43.6439C0.553507 43.8011 0.232476 43.7291 0.0817876 43.4866C-0.0689005 43.2573 -0.00338396 42.9494 0.212821 42.7856H0.219372Z" fill="white"/>
<path d="M132.55 21.7943C142.764 17.0836 153.214 12.8775 163.958 9.52301C171.139 7.28234 178.503 5.48719 186.037 5.00892C197.274 4.35375 208.582 4.97616 219.785 5.77546C238.523 7.22993 257.254 9.17577 275.441 14.155C276.267 14.4695 277.014 14.5416 277.905 15.1116C278.57 15.537 279.431 16.0517 277.905 18.76C276.378 21.4684 277.266 21.25 272.467 21.9515C264.579 23.1046 256.671 24.0415 248.809 25.2601C248.384 25.3231 248.353 25.0682 248.809 25.0006C252.511 24.4372 255.413 24.025 259.776 23.2585C264.14 22.4919 268.228 21.9023 272.552 20.9654C273.135 20.854 273.81 19.8353 274.249 19.3701C275.5 17.362 276.058 15.3406 275.173 15.0689C271.694 14.001 266.682 12.9331 263.052 12.1207C247.983 9.5 237.828 8.35377 219.785 6.87934C208.641 5.96866 197.28 5.7296 186.11 6.26028C174.919 6.88924 164.129 10.3158 153.607 13.9912C146.577 16.5267 139.626 19.3112 132.818 22.3905C132.655 22.4625 132.458 22.3905 132.386 22.2267C132.314 22.0629 132.386 21.8729 132.543 21.7943H132.55Z" fill="white"/>
<path d="M233.707 40.9117C243.397 36.2141 253.343 31.7983 263.851 29.2759C270.2 27.828 276.857 28.2932 283.297 28.2015C291.899 28.2801 300.482 28.5422 309.064 28.8501C317.647 29.1515 326.223 29.5446 334.799 29.9901C334.944 29.9966 335.061 30.1211 335.048 30.2718C335.042 30.4159 334.917 30.5273 334.773 30.5208C317.621 30.1408 300.449 29.7739 283.297 29.977C278.488 30.0752 273.679 30.1342 268.922 30.5928C265.26 30.9663 261.611 31.7132 258.06 32.6959C249.837 34.9693 241.799 38.0683 233.989 41.5079C233.825 41.5865 233.629 41.5079 233.55 41.3441C233.478 41.1803 233.55 40.9969 233.701 40.9182L233.707 40.9117Z" fill="white"/>
<path d="M339.711 30.1523C343.249 30.0737 346.957 30.316 350.495 30.5453C350.783 30.5781 351.182 30.6502 351.425 30.7943C353.672 32.2357 356.247 34.306 358.363 35.8194C360.099 36.1405 361.927 36.0356 363.716 36.3632C364.05 36.4025 364.109 36.907 363.788 37.0118C361.868 37.6801 359.877 38.0994 357.832 37.7391C357.308 37.5884 357.033 37.3394 356.804 37.1691C354.622 35.4787 353.155 33.1594 351.006 31.5084C350.835 31.4036 350.573 31.3643 350.383 31.325C346.93 30.9253 343.032 30.5816 339.711 30.5816C339.278 30.6274 339.259 30.1589 339.711 30.1392V30.1523Z" fill="#E30613"/>
<path d="M0.808978 50.1758C2.15207 50.1562 3.58033 50.0907 4.8579 49.6976C4.90376 49.6845 4.88411 49.6648 4.89721 49.6583C4.89721 49.6583 4.91031 49.6452 4.93652 49.6059C5.8472 48.3152 6.4172 46.638 6.89547 45.1114C7.06581 44.5152 7.68822 44.1745 8.28442 44.3449C9.02475 44.5414 9.33923 45.4849 8.87407 46.0876L7.41305 48.0924C6.75133 48.859 6.13547 50.0972 5.13962 50.5362C3.69171 50.7786 2.27655 50.6738 0.828633 50.8245C0.38312 50.8572 0.356914 50.1693 0.808978 50.1693V50.1758Z" fill="white"/>
<path d="M9.09032 48.7212C11.521 48.7081 14.1417 48.7867 16.4806 48.1316C16.8737 48.0005 17.234 47.5419 17.5944 47.0768C18.2954 46.0809 19.0423 44.9213 19.4485 43.8075C19.4485 43.814 19.4616 43.7616 19.4485 43.8206C19.4485 43.8795 19.455 43.9385 19.4813 43.9909C19.4485 43.7813 19.4616 43.0999 19.4419 42.864C19.4419 42.7134 19.5402 42.5823 19.6778 42.543C20.3854 42.353 20.975 42.792 21.1978 43.4144C21.283 43.6961 21.2568 44.0171 21.1912 44.2857C20.9423 45.1244 20.464 45.8713 19.9923 46.5199C19.1209 47.5943 18.2037 48.826 16.7885 49.2257C15.4323 49.4681 14.2072 49.4354 12.8706 49.4419C11.5931 49.4354 10.3286 49.4026 9.05757 49.3633C8.63826 49.3502 8.64481 48.7016 9.07722 48.7081L9.09032 48.7212Z" fill="white"/>
</svg>
