<svg width="54" height="45" viewBox="0 0 54 45" fill="none" xmlns="http://www.w3.org/2000/svg">
<path d="M53.3411 1.68885C53.1485 1.1333 52.9188 0.977739 52.5633 0.844405C51.7855 0.548109 50.467 0.992554 50.467 0.992554C50.467 0.992554 3.73367 17.7851 1.067 19.6518C0.489225 20.0518 0.296631 20.2814 0.207742 20.5555C-0.251517 21.8814 1.18552 22.4666 1.18552 22.4666L13.23 26.3926C13.23 26.3926 13.6818 26.4592 13.8374 26.3555C16.5781 24.6222 41.4077 8.94811 42.8374 8.42218C43.067 8.35552 43.23 8.42959 43.1855 8.58515C42.6152 10.6 21.0522 29.7629 21.0522 29.7629C21.0522 29.7629 20.9707 29.8666 20.9189 29.9851L20.8892 29.9703L19.7633 41.9185C19.7633 41.9185 19.2892 45.5777 22.9559 41.9185C25.5411 39.3333 28.0374 37.1777 29.2892 36.1259C33.43 38.9851 37.8892 42.1481 39.8077 43.8C40.7707 44.6296 41.5855 44.7629 42.2448 44.7407C44.067 44.674 44.5781 42.6666 44.5781 42.6666C44.5781 42.6666 53.0966 8.39255 53.3781 3.79996C53.4077 3.34811 53.4448 3.06663 53.4448 2.75552C53.4522 2.32589 53.4077 1.88885 53.3411 1.68885Z" fill="white"/>
</svg>
