<svg width="61" height="64" viewBox="0 0 61 64" fill="none" xmlns="http://www.w3.org/2000/svg">
<path d="M28.7761 0.00961905C23.6395 0.0716267 12.5961 0.915731 6.41937 6.58243C1.82481 11.135 0.220608 17.8658 0.0325847 26.1889C-0.123434 34.4819 -0.311458 50.0558 14.7004 54.2963V60.7551C14.7004 60.7551 14.6064 63.3394 16.3146 63.8695C18.4189 64.5356 19.617 62.5473 21.6172 60.4111L25.3477 56.1926C35.619 57.0467 43.4859 55.0784 44.392 54.7864C46.4763 54.1203 58.2158 52.6201 60.134 37.0442C62.1022 20.9582 59.1759 10.823 53.8932 6.23839H53.8612C52.267 4.77021 45.8602 0.10163 31.5465 0.049624C31.5465 0.049624 30.4843 -0.0223849 28.7761 0.0076188V0.00961905ZM28.9522 4.53218C30.4103 4.52218 31.2964 4.58418 31.2964 4.58418C43.4119 4.61619 49.1946 8.26264 50.5588 9.49079C55.0074 13.3033 57.2996 22.4404 55.6214 35.87C54.0272 48.8917 44.5061 49.7158 42.7438 50.2778C41.9938 50.5178 35.0649 52.2261 26.3358 51.664C26.3358 51.664 19.835 59.509 17.8028 61.5292C17.4807 61.8833 17.1047 61.9873 16.8647 61.9353C16.5206 61.8512 16.4166 61.4252 16.4366 60.8411L16.4986 50.1218C3.76705 46.6014 4.51714 33.3177 4.65315 26.3789C4.80917 19.44 6.11133 13.7633 9.98781 9.91884C15.2065 5.20026 24.5836 4.56418 28.9482 4.53218H28.9522ZM29.9123 11.469C29.8075 11.468 29.7035 11.4877 29.6064 11.527C29.5092 11.5663 29.4208 11.6244 29.3463 11.6981C29.2717 11.7717 29.2125 11.8594 29.1719 11.956C29.1314 12.0526 29.1104 12.1563 29.1102 12.2611C29.1102 12.7092 29.4742 13.0632 29.9123 13.0632C31.8955 13.0255 33.8666 13.3808 35.7119 14.1086C37.5571 14.8364 39.2401 15.9223 40.6636 17.3038C43.57 20.1261 44.9861 23.9186 45.0401 28.8772C45.0401 29.3152 45.3942 29.6793 45.8422 29.6793V29.6473C46.0534 29.6478 46.2562 29.5648 46.4065 29.4165C46.5567 29.2681 46.6422 29.0663 46.6443 28.8552C46.7415 26.5212 46.363 24.1918 45.5318 22.0087C44.7007 19.8255 43.4344 17.8341 41.8097 16.1556C38.6433 13.0612 34.6308 11.467 29.9123 11.467V11.469ZM19.369 13.3033C18.8028 13.2205 18.2254 13.3342 17.7328 13.6253H17.6908C16.5471 14.2957 15.5169 15.1429 14.6384 16.1356C13.9083 16.9797 13.5122 17.8338 13.4082 18.6559C13.3462 19.146 13.3882 19.636 13.5342 20.1041L13.5863 20.1361C14.4084 22.5524 15.4825 24.8767 16.7947 27.065C18.4849 30.1392 20.565 32.9824 22.9834 35.524L23.0554 35.628L23.1694 35.712L23.2414 35.796L23.3255 35.868C25.8762 38.2935 28.7263 40.3834 31.8065 42.0868C35.3269 44.003 37.4632 44.9092 38.7454 45.2852V45.3052C39.1214 45.4192 39.4634 45.4712 39.8075 45.4712C40.9002 45.3912 41.9346 44.9475 42.7458 44.2111C43.734 43.3323 44.5718 42.2979 45.2262 41.1487V41.1287C45.8402 39.9725 45.6322 38.8784 44.7461 38.1383C42.9715 36.5871 41.0525 35.2093 39.0154 34.0238C37.6512 33.2837 36.265 33.7318 35.703 34.4819L34.5048 35.9921C33.8908 36.7421 32.7746 36.6381 32.7746 36.6381L32.7426 36.6581C24.4196 34.5319 22.1993 26.1048 22.1993 26.1048C22.1993 26.1048 22.0953 24.9587 22.8654 24.3746L24.3656 23.1665C25.0837 22.5824 25.5837 21.1982 24.8136 19.8321C23.6363 17.7921 22.2615 15.8727 20.7091 14.1014C20.3698 13.6838 19.8936 13.3996 19.365 13.2993L19.369 13.3033ZM31.2964 15.6796C30.2343 15.6796 30.2343 17.2838 31.3064 17.2838C32.6272 17.3052 33.9307 17.5867 35.1426 18.1121C36.3545 18.6376 37.4509 19.3967 38.3693 20.3461C39.2071 21.2703 39.8508 22.3531 40.2624 23.5306C40.674 24.7081 40.8451 25.9562 40.7656 27.201C40.7693 27.4116 40.8553 27.6125 41.0052 27.7605C41.1551 27.9086 41.357 27.9921 41.5677 27.9931L41.5997 28.0351C41.812 28.0335 42.0151 27.9485 42.1651 27.7984C42.3152 27.6483 42.4002 27.4452 42.4018 27.233C42.4738 24.0546 41.4857 21.3883 39.5475 19.252C37.5992 17.1157 34.8809 15.9176 31.4105 15.6796H31.2964ZM32.6106 19.9921C31.5165 19.9601 31.4745 21.5963 32.5586 21.6283C35.1949 21.7643 36.4751 23.0965 36.6431 25.8368C36.6468 26.0448 36.7317 26.2431 36.8797 26.3893C37.0278 26.5355 37.2272 26.6179 37.4352 26.6189H37.4672C37.5742 26.6143 37.6791 26.5885 37.776 26.5429C37.8729 26.4973 37.9597 26.4328 38.0313 26.3533C38.103 26.2738 38.1582 26.1808 38.1935 26.0798C38.2289 25.9787 38.2438 25.8717 38.2373 25.7648C38.0493 22.1924 36.101 20.1801 32.6426 19.9941H32.6106V19.9921Z" fill="white"/>
</svg>
