<svg width="64" height="64" viewBox="0 0 64 64" fill="none" xmlns="http://www.w3.org/2000/svg">
<path fill-rule="evenodd" clip-rule="evenodd" d="M54.6773 9.30215C51.7244 6.34441 48.2113 3.99929 44.3416 2.40261C40.4718 0.805936 36.3223 -0.0105604 32.1333 0.000414358C14.5733 0.000414358 0.266666 14.2291 0.266666 31.7097C0.253358 37.2758 1.71988 42.7463 4.51733 47.5656L0 64.0003L16.896 59.583C21.568 62.1166 26.8025 63.4462 32.1227 63.4508H32.136C49.6987 63.4508 63.9893 49.2248 64 31.7309C64 23.2601 60.688 15.2963 54.6773 9.2995V9.30215ZM32.1333 58.0912H32.1227C27.3801 58.0911 22.7247 56.8232 18.6427 54.4198L17.6747 53.8491L7.64267 56.4639L10.32 46.7348L9.696 45.7393C7.0416 41.5374 5.63631 36.6733 5.64267 31.7097C5.64267 17.1837 17.528 5.36272 32.144 5.36272C35.6224 5.35407 39.0681 6.03237 42.2814 7.35836C45.4947 8.68435 48.4118 10.6317 50.864 13.0876C53.3282 15.5318 55.2816 18.4377 56.6112 21.6377C57.9408 24.8376 58.6204 28.2681 58.6107 31.7309C58.6107 46.2702 46.7253 58.0912 32.1307 58.0912H32.1333ZM46.6533 38.3462C45.8613 37.9533 41.944 36.0367 41.216 35.7765C40.488 35.5058 39.9547 35.381 39.424 36.1694C38.8907 36.9658 37.3707 38.7524 36.904 39.2806C36.4453 39.7983 35.976 39.8726 35.184 39.4771C34.384 39.0842 31.8213 38.2427 28.7787 35.5376C26.4133 33.4405 24.8107 30.839 24.352 30.0506C23.8827 29.2542 24.2987 28.8294 24.696 28.4312C25.0587 28.0808 25.496 27.5101 25.8933 27.0429C26.288 26.5889 26.4267 26.2571 26.6933 25.7262C26.9547 25.1979 26.8213 24.7307 26.6213 24.3378C26.424 23.945 24.832 20.0347 24.1653 18.4473C23.5173 16.9023 22.8613 17.12 22.3733 17.0908C21.9147 17.0695 21.384 17.0695 20.8533 17.0695C20.32 17.0695 19.456 17.266 18.7253 18.065C17.9973 18.8534 15.944 20.7727 15.944 24.6697C15.944 28.5693 18.7973 32.3415 19.1973 32.8724C19.592 33.39 24.8107 41.3937 32.7973 44.8287C34.2773 45.4659 35.7906 46.0233 37.3307 46.4985C39.2373 47.0984 40.976 47.0161 42.352 46.817C43.8827 46.5914 47.0587 44.9004 47.7253 43.0448C48.384 41.1999 48.384 39.6124 48.184 39.2806C47.9867 38.9488 47.456 38.7497 46.6533 38.3462Z" fill="white"/>
</svg>
