<svg width="55" height="40" viewBox="0 0 55 40" fill="none" xmlns="http://www.w3.org/2000/svg">
<path d="M54.7671 12.8494C54.7671 6.20724 49.3968 0.836975 42.7546 0.836975L12.0593 0.836975C5.41714 0.836975 0.046875 6.20724 0.046875 12.8494L0.046875 27.1513C0.046875 33.7934 5.41714 39.1637 12.0593 39.1637L42.7546 39.1637C49.3968 39.1637 54.7671 33.7934 54.7671 27.1513L54.7671 12.8494ZM36.706 21.0744L22.9412 27.8862C22.4041 28.1688 20.5669 27.8014 20.5669 27.1795L20.5669 13.1886C20.5669 12.5668 22.4041 12.1711 22.9694 12.482L36.1407 19.6612C36.706 19.9721 37.2713 20.7635 36.706 21.0744Z" fill="white"/>
</svg>
