<svg class="svg-logo" width="164" height="164" viewBox="0 0 164 164" fill="none" xmlns="http://www.w3.org/2000/svg">
  <style>
    .svg-logo {
      stroke:rgba(255, 255, 255, 1);
      stroke-width:4;
      stroke-linecap: round;
      stroke-linejoin: round;
      fill:none;
      stroke-dasharray:100% 50%;
      stroke-dashoffset:0%;
      transition: 2s;
      margin: 0 auto;
      display:block;
      animation: logo 8s ease-in-out infinite;
    }

    @keyframes logo {
    50% {
    stroke-dashoffset: 0%;
    }
    100% {
    stroke-dashoffset: 150%;
    }
} 
  </style>
  <!-- A -->
  <path d="M24 2 L 46 60" />
  <path d="M12 32 H34" />
  <path d="M2 60 H2" />
  <!-- N -->
  <path d="M104 2 L104 60 L60 2 L 60 32" />
  <path d="M60 60 H60" />
  <!-- Y -->
  <path d="M118 2 L140 32 V60" />
  <path d="M162 2 H162" />
  <!-- Line -->
  <path d="M162 82 H2" />
  <!-- A -->
  <path d="M46 162 L24 104" />
  <path d="M12 134 H34" />
  <path d="M2 162 H2" />
  <!-- R -->
  <path d="M104 162 L60 134 H90 C98 134 104 126 104 118 C104 110 98 104 90 104 H60" />
  <path d="M60 162 H60" />
  <!-- T -->
  <path d="M140 162 V104 H118" />
  <path d="M162 104 H162" />
</svg>